<mxfile host="app.diagrams.net" modified="2020-09-22T17:24:57.732Z" agent="5.0 (Macintosh; Intel Mac OS X 10_15_6) AppleWebKit/537.36 (KHTML, like Gecko) Chrome/85.0.4183.102 Safari/537.36" etag="ffREHdS0H_C827Ge0LLC" version="13.7.3" type="github">
  <diagram id="3s_1WhjC9RvOzhn0AqiY" name="PÃ¡gina-1">
    <mxGraphModel dx="2253" dy="826" grid="1" gridSize="10" guides="1" tooltips="1" connect="1" arrows="1" fold="1" page="1" pageScale="1" pageWidth="827" pageHeight="1169" math="0" shadow="0">
      <root>
        <mxCell id="0" />
        <mxCell id="1" parent="0" />
        <mxCell id="SRUXhGPDmeP_8X7NdtPJ-59" value="" style="rounded=0;whiteSpace=wrap;html=1;dashed=1;fillColor=none;" parent="1" vertex="1">
          <mxGeometry x="-360" y="630" width="1815" height="300" as="geometry" />
        </mxCell>
        <mxCell id="SRUXhGPDmeP_8X7NdtPJ-28" value="" style="rounded=0;whiteSpace=wrap;html=1;dashed=1;fillColor=#f5f5f5;strokeColor=#666666;fontColor=#333333;" parent="1" vertex="1">
          <mxGeometry x="25" y="150" width="1005" height="380" as="geometry" />
        </mxCell>
        <mxCell id="SRUXhGPDmeP_8X7NdtPJ-2" value="SGI" style="text;html=1;strokeColor=none;fillColor=none;align=center;verticalAlign=middle;whiteSpace=wrap;rounded=0;dashed=1;fontStyle=1" parent="1" vertex="1">
          <mxGeometry x="40" y="160" width="40" height="20" as="geometry" />
        </mxCell>
        <mxCell id="SRUXhGPDmeP_8X7NdtPJ-3" value="" style="html=1;strokeWidth=1;shadow=0;dashed=0;shape=mxgraph.ios7.misc.vpn;fillColor=#007AFF;strokeColor=none;buttonText=;strokeColor2=#222222;fontColor=#222222;fontSize=8;verticalLabelPosition=bottom;verticalAlign=top;align=center;" parent="1" vertex="1">
          <mxGeometry x="992.5" y="160" width="15" height="15" as="geometry" />
        </mxCell>
        <mxCell id="SRUXhGPDmeP_8X7NdtPJ-4" value="Red Interna IPS" style="text;html=1;strokeColor=none;fillColor=none;align=center;verticalAlign=middle;whiteSpace=wrap;rounded=0;dashed=1;" parent="1" vertex="1">
          <mxGeometry x="980" y="190" width="40" height="20" as="geometry" />
        </mxCell>
        <mxCell id="SRUXhGPDmeP_8X7NdtPJ-5" value="" style="rounded=1;whiteSpace=wrap;html=1;dashed=1;fillColor=none;" parent="1" vertex="1">
          <mxGeometry x="60" y="250" width="260" height="210" as="geometry" />
        </mxCell>
        <mxCell id="SRUXhGPDmeP_8X7NdtPJ-6" value="Front End SAFEM" style="text;html=1;strokeColor=none;fillColor=none;align=center;verticalAlign=middle;whiteSpace=wrap;rounded=0;dashed=1;" parent="1" vertex="1">
          <mxGeometry x="90" y="250" width="110" height="20" as="geometry" />
        </mxCell>
        <mxCell id="SRUXhGPDmeP_8X7NdtPJ-9" value="Oracle Weblogic 12.1.3C" style="rounded=0;whiteSpace=wrap;html=1;dashed=1;fillColor=none;verticalAlign=bottom;" parent="1" vertex="1">
          <mxGeometry x="100" y="380" width="150" height="60" as="geometry" />
        </mxCell>
        <mxCell id="SRUXhGPDmeP_8X7NdtPJ-10" value="JDK 1.7" style="rounded=0;whiteSpace=wrap;html=1;dashed=1;fillColor=none;" parent="1" vertex="1">
          <mxGeometry x="100" y="380" width="150" height="20" as="geometry" />
        </mxCell>
        <mxCell id="SRUXhGPDmeP_8X7NdtPJ-11" value="EJB 3.1" style="rounded=0;whiteSpace=wrap;html=1;dashed=1;fillColor=none;" parent="1" vertex="1">
          <mxGeometry x="100" y="320" width="150" height="20" as="geometry" />
        </mxCell>
        <mxCell id="SRUXhGPDmeP_8X7NdtPJ-13" value="JSF" style="rounded=0;whiteSpace=wrap;html=1;dashed=1;fillColor=none;" parent="1" vertex="1">
          <mxGeometry x="100" y="300" width="150" height="20" as="geometry" />
        </mxCell>
        <mxCell id="SRUXhGPDmeP_8X7NdtPJ-14" value="JEE 6" style="rounded=0;whiteSpace=wrap;html=1;dashed=1;fillColor=none;horizontal=0;" parent="1" vertex="1">
          <mxGeometry x="70" y="300" width="30" height="50" as="geometry" />
        </mxCell>
        <mxCell id="SRUXhGPDmeP_8X7NdtPJ-15" value="Primeface" style="rounded=0;whiteSpace=wrap;html=1;dashed=1;fillColor=none;" parent="1" vertex="1">
          <mxGeometry x="100" y="280" width="150" height="20" as="geometry" />
        </mxCell>
        <mxCell id="SRUXhGPDmeP_8X7NdtPJ-16" value="maven 3" style="rounded=0;whiteSpace=wrap;html=1;dashed=1;fillColor=none;horizontal=0;" parent="1" vertex="1">
          <mxGeometry x="70" y="350" width="30" height="90" as="geometry" />
        </mxCell>
        <mxCell id="SRUXhGPDmeP_8X7NdtPJ-24" style="edgeStyle=orthogonalEdgeStyle;rounded=0;orthogonalLoop=1;jettySize=auto;html=1;entryX=0;entryY=0.5;entryDx=0;entryDy=0;" parent="1" source="SRUXhGPDmeP_8X7NdtPJ-17" target="SRUXhGPDmeP_8X7NdtPJ-25" edge="1">
          <mxGeometry relative="1" as="geometry" />
        </mxCell>
        <mxCell id="SRUXhGPDmeP_8X7NdtPJ-17" value="JAX-WS / JAX-RS" style="rounded=0;whiteSpace=wrap;html=1;dashed=1;fillColor=none;" parent="1" vertex="1">
          <mxGeometry x="100" y="360" width="150" height="20" as="geometry" />
        </mxCell>
        <mxCell id="SRUXhGPDmeP_8X7NdtPJ-19" value="SAFEM Actual&amp;nbsp;" style="text;html=1;strokeColor=none;fillColor=none;align=center;verticalAlign=middle;whiteSpace=wrap;rounded=0;dashed=1;fontStyle=1;fontColor=#FF00FF;" parent="1" vertex="1">
          <mxGeometry x="467.5" y="160" width="95" height="20" as="geometry" />
        </mxCell>
        <mxCell id="SRUXhGPDmeP_8X7NdtPJ-20" value="" style="rounded=1;whiteSpace=wrap;html=1;dashed=1;fillColor=none;" parent="1" vertex="1">
          <mxGeometry x="400" y="250" width="260" height="210" as="geometry" />
        </mxCell>
        <mxCell id="SRUXhGPDmeP_8X7NdtPJ-21" value="Midleware SAFEM" style="text;html=1;strokeColor=none;fillColor=none;align=center;verticalAlign=middle;whiteSpace=wrap;rounded=0;dashed=1;" parent="1" vertex="1">
          <mxGeometry x="414" y="250" width="110" height="20" as="geometry" />
        </mxCell>
        <mxCell id="SRUXhGPDmeP_8X7NdtPJ-56" style="edgeStyle=orthogonalEdgeStyle;rounded=0;orthogonalLoop=1;jettySize=auto;html=1;entryX=0;entryY=0.5;entryDx=0;entryDy=0;fontSize=11;" parent="1" source="SRUXhGPDmeP_8X7NdtPJ-25" target="SRUXhGPDmeP_8X7NdtPJ-54" edge="1">
          <mxGeometry relative="1" as="geometry" />
        </mxCell>
        <mxCell id="SRUXhGPDmeP_8X7NdtPJ-25" value="OSB JAVA SOAP SERVICES" style="rounded=0;whiteSpace=wrap;html=1;dashed=1;fillColor=none;fontSize=11;" parent="1" vertex="1">
          <mxGeometry x="440" y="315" width="150" height="20" as="geometry" />
        </mxCell>
        <mxCell id="SRUXhGPDmeP_8X7NdtPJ-26" value="Oracle Weblogic 12.1.3C" style="rounded=0;whiteSpace=wrap;html=1;dashed=1;fillColor=none;verticalAlign=bottom;" parent="1" vertex="1">
          <mxGeometry x="440" y="335" width="150" height="60" as="geometry" />
        </mxCell>
        <mxCell id="SRUXhGPDmeP_8X7NdtPJ-27" value="JDK 1.7" style="rounded=0;whiteSpace=wrap;html=1;dashed=1;fillColor=none;" parent="1" vertex="1">
          <mxGeometry x="440" y="335" width="150" height="20" as="geometry" />
        </mxCell>
        <mxCell id="SRUXhGPDmeP_8X7NdtPJ-29" value="Jasper Report" style="rounded=0;whiteSpace=wrap;html=1;dashed=1;fillColor=none;" parent="1" vertex="1">
          <mxGeometry x="100" y="340" width="150" height="20" as="geometry" />
        </mxCell>
        <mxCell id="SRUXhGPDmeP_8X7NdtPJ-82" style="edgeStyle=orthogonalEdgeStyle;rounded=0;orthogonalLoop=1;jettySize=auto;html=1;entryX=0;entryY=0.5;entryDx=0;entryDy=0;startArrow=classic;startFill=1;fontSize=11;fontColor=#FF3333;" parent="1" source="SRUXhGPDmeP_8X7NdtPJ-33" target="SRUXhGPDmeP_8X7NdtPJ-60" edge="1">
          <mxGeometry relative="1" as="geometry" />
        </mxCell>
        <mxCell id="SRUXhGPDmeP_8X7NdtPJ-33" value="" style="rounded=1;whiteSpace=wrap;html=1;dashed=1;fillColor=none;" parent="1" vertex="1">
          <mxGeometry x="110" y="715" width="420" height="175" as="geometry" />
        </mxCell>
        <mxCell id="SRUXhGPDmeP_8X7NdtPJ-34" value="CHA / Otros Sistemas" style="text;html=1;strokeColor=none;fillColor=none;align=center;verticalAlign=middle;whiteSpace=wrap;rounded=0;dashed=1;" parent="1" vertex="1">
          <mxGeometry x="120" y="687.5" width="130" height="20" as="geometry" />
        </mxCell>
        <mxCell id="SRUXhGPDmeP_8X7NdtPJ-37" value="" style="outlineConnect=0;dashed=0;verticalLabelPosition=bottom;verticalAlign=top;align=center;html=1;shape=mxgraph.aws3.cloud_2;fillColor=#F58534;gradientColor=none;fontSize=11;" parent="1" vertex="1">
          <mxGeometry x="480" y="720" width="35" height="40" as="geometry" />
        </mxCell>
        <mxCell id="SRUXhGPDmeP_8X7NdtPJ-38" value="EKS" style="rounded=0;whiteSpace=wrap;html=1;dashed=1;fillColor=none;" parent="1" vertex="1">
          <mxGeometry x="150" y="790" width="150" height="20" as="geometry" />
        </mxCell>
        <mxCell id="SRUXhGPDmeP_8X7NdtPJ-39" value="EC2" style="rounded=0;whiteSpace=wrap;html=1;dashed=1;fillColor=none;" parent="1" vertex="1">
          <mxGeometry x="150" y="810" width="150" height="20" as="geometry" />
        </mxCell>
        <mxCell id="SRUXhGPDmeP_8X7NdtPJ-46" style="edgeStyle=orthogonalEdgeStyle;rounded=0;orthogonalLoop=1;jettySize=auto;html=1;entryX=0;entryY=0;entryDx=0;entryDy=0;fontSize=11;" parent="1" source="SRUXhGPDmeP_8X7NdtPJ-40" target="SRUXhGPDmeP_8X7NdtPJ-45" edge="1">
          <mxGeometry relative="1" as="geometry">
            <Array as="points">
              <mxPoint x="130" y="780" />
              <mxPoint x="130" y="860" />
              <mxPoint x="320" y="860" />
              <mxPoint x="320" y="830" />
            </Array>
          </mxGeometry>
        </mxCell>
        <mxCell id="SRUXhGPDmeP_8X7NdtPJ-47" value="" style="edgeStyle=orthogonalEdgeStyle;rounded=0;orthogonalLoop=1;jettySize=auto;html=1;fontSize=11;" parent="1" source="SRUXhGPDmeP_8X7NdtPJ-40" target="SRUXhGPDmeP_8X7NdtPJ-44" edge="1">
          <mxGeometry relative="1" as="geometry" />
        </mxCell>
        <mxCell id="SRUXhGPDmeP_8X7NdtPJ-40" value="PHP / Lumen" style="rounded=0;whiteSpace=wrap;html=1;dashed=1;fillColor=none;" parent="1" vertex="1">
          <mxGeometry x="150" y="770" width="150" height="20" as="geometry" />
        </mxCell>
        <mxCell id="SRUXhGPDmeP_8X7NdtPJ-42" value="APIS AWS" style="text;html=1;strokeColor=none;fillColor=none;align=center;verticalAlign=middle;whiteSpace=wrap;rounded=0;dashed=1;" parent="1" vertex="1">
          <mxGeometry x="110" y="720" width="110" height="20" as="geometry" />
        </mxCell>
        <mxCell id="SRUXhGPDmeP_8X7NdtPJ-48" style="edgeStyle=orthogonalEdgeStyle;rounded=0;orthogonalLoop=1;jettySize=auto;html=1;entryX=1;entryY=0.5;entryDx=0;entryDy=0;fontSize=11;startArrow=classic;startFill=1;" parent="1" source="SRUXhGPDmeP_8X7NdtPJ-44" target="SRUXhGPDmeP_8X7NdtPJ-17" edge="1">
          <mxGeometry relative="1" as="geometry">
            <Array as="points">
              <mxPoint x="415" y="690" />
              <mxPoint x="295" y="690" />
              <mxPoint x="295" y="370" />
            </Array>
          </mxGeometry>
        </mxCell>
        <mxCell id="Ni1iV5EW_skRwK6J7Ts_-15" value="RED VPN" style="edgeLabel;html=1;align=center;verticalAlign=middle;resizable=0;points=[];" parent="SRUXhGPDmeP_8X7NdtPJ-48" vertex="1" connectable="0">
          <mxGeometry x="0.4018" y="-1" relative="1" as="geometry">
            <mxPoint as="offset" />
          </mxGeometry>
        </mxCell>
        <mxCell id="SRUXhGPDmeP_8X7NdtPJ-44" value="API Gatew" style="rounded=0;whiteSpace=wrap;html=1;dashed=1;fillColor=none;" parent="1" vertex="1">
          <mxGeometry x="340" y="770" width="150" height="20" as="geometry" />
        </mxCell>
        <mxCell id="SRUXhGPDmeP_8X7NdtPJ-45" value="RDS Mysql" style="rounded=0;whiteSpace=wrap;html=1;dashed=1;fillColor=none;" parent="1" vertex="1">
          <mxGeometry x="339" y="830" width="150" height="20" as="geometry" />
        </mxCell>
        <mxCell id="SRUXhGPDmeP_8X7NdtPJ-50" value="" style="aspect=fixed;perimeter=ellipsePerimeter;html=1;align=center;shadow=0;dashed=0;spacingTop=3;image;image=img/lib/active_directory/internet_cloud.svg;fillColor=none;fontSize=11;" parent="1" vertex="1">
          <mxGeometry x="270" y="590" width="50" height="31.5" as="geometry" />
        </mxCell>
        <mxCell id="SRUXhGPDmeP_8X7NdtPJ-51" value="" style="rounded=1;whiteSpace=wrap;html=1;dashed=1;fillColor=none;" parent="1" vertex="1">
          <mxGeometry x="750" y="245" width="260" height="210" as="geometry" />
        </mxCell>
        <mxCell id="SRUXhGPDmeP_8X7NdtPJ-52" value="Oracle Data Base 12.1.3C" style="rounded=0;whiteSpace=wrap;html=1;dashed=1;fillColor=none;verticalAlign=bottom;" parent="1" vertex="1">
          <mxGeometry x="790" y="360" width="150" height="30" as="geometry" />
        </mxCell>
        <mxCell id="SRUXhGPDmeP_8X7NdtPJ-53" value="Base Datos" style="text;html=1;strokeColor=none;fillColor=none;align=center;verticalAlign=middle;whiteSpace=wrap;rounded=0;dashed=1;" parent="1" vertex="1">
          <mxGeometry x="750" y="250" width="110" height="20" as="geometry" />
        </mxCell>
        <mxCell id="SRUXhGPDmeP_8X7NdtPJ-54" value="Package" style="rounded=0;whiteSpace=wrap;html=1;dashed=1;fillColor=none;" parent="1" vertex="1">
          <mxGeometry x="790" y="340" width="150" height="20" as="geometry" />
        </mxCell>
        <mxCell id="SRUXhGPDmeP_8X7NdtPJ-55" value="Storage Procedures" style="rounded=0;whiteSpace=wrap;html=1;dashed=1;fillColor=none;" parent="1" vertex="1">
          <mxGeometry x="790" y="320" width="150" height="20" as="geometry" />
        </mxCell>
        <mxCell id="SRUXhGPDmeP_8X7NdtPJ-58" value="SAFEM &quot;NUEVOS&quot; Servicios OpciÃ³n reutilizar Arq de IPS/CHA/etc" style="text;html=1;strokeColor=none;fillColor=none;align=center;verticalAlign=middle;whiteSpace=wrap;rounded=0;dashed=1;fontStyle=1;" parent="1" vertex="1">
          <mxGeometry x="827" y="680" width="315" height="35" as="geometry" />
        </mxCell>
        <mxCell id="SRUXhGPDmeP_8X7NdtPJ-60" value="" style="rounded=1;whiteSpace=wrap;html=1;dashed=1;fillColor=#fff2cc;strokeColor=#d6b656;gradientColor=#ffd966;" parent="1" vertex="1">
          <mxGeometry x="835" y="715" width="420" height="175" as="geometry" />
        </mxCell>
        <mxCell id="SRUXhGPDmeP_8X7NdtPJ-62" value="" style="aspect=fixed;perimeter=ellipsePerimeter;html=1;align=center;shadow=0;dashed=0;spacingTop=3;image;image=img/lib/active_directory/internet_globe.svg;fillColor=none;fontSize=11;" parent="1" vertex="1">
          <mxGeometry x="1400" y="630" width="50" height="50" as="geometry" />
        </mxCell>
        <mxCell id="SRUXhGPDmeP_8X7NdtPJ-63" value="Internet" style="text;html=1;strokeColor=none;fillColor=none;align=center;verticalAlign=middle;whiteSpace=wrap;rounded=0;dashed=1;fontSize=11;" parent="1" vertex="1">
          <mxGeometry x="1405" y="680" width="40" height="20" as="geometry" />
        </mxCell>
        <mxCell id="SRUXhGPDmeP_8X7NdtPJ-64" value="" style="outlineConnect=0;dashed=0;verticalLabelPosition=bottom;verticalAlign=top;align=center;html=1;shape=mxgraph.aws3.cloud_2;fillColor=#F58534;gradientColor=none;fontSize=11;" parent="1" vertex="1">
          <mxGeometry x="1205" y="720" width="35" height="40" as="geometry" />
        </mxCell>
        <mxCell id="SRUXhGPDmeP_8X7NdtPJ-65" value="EKS" style="rounded=0;whiteSpace=wrap;html=1;dashed=1;fillColor=none;" parent="1" vertex="1">
          <mxGeometry x="875" y="790" width="150" height="20" as="geometry" />
        </mxCell>
        <mxCell id="SRUXhGPDmeP_8X7NdtPJ-66" value="EC2" style="rounded=0;whiteSpace=wrap;html=1;dashed=1;fillColor=none;" parent="1" vertex="1">
          <mxGeometry x="875" y="810" width="150" height="20" as="geometry" />
        </mxCell>
        <mxCell id="SRUXhGPDmeP_8X7NdtPJ-67" style="edgeStyle=orthogonalEdgeStyle;rounded=0;orthogonalLoop=1;jettySize=auto;html=1;entryX=0;entryY=0;entryDx=0;entryDy=0;fontSize=11;" parent="1" source="SRUXhGPDmeP_8X7NdtPJ-69" target="SRUXhGPDmeP_8X7NdtPJ-72" edge="1">
          <mxGeometry relative="1" as="geometry">
            <Array as="points">
              <mxPoint x="855" y="780" />
              <mxPoint x="855" y="860" />
              <mxPoint x="1045" y="860" />
              <mxPoint x="1045" y="830" />
            </Array>
          </mxGeometry>
        </mxCell>
        <mxCell id="SRUXhGPDmeP_8X7NdtPJ-68" value="" style="edgeStyle=orthogonalEdgeStyle;rounded=0;orthogonalLoop=1;jettySize=auto;html=1;fontSize=11;" parent="1" source="SRUXhGPDmeP_8X7NdtPJ-69" target="SRUXhGPDmeP_8X7NdtPJ-71" edge="1">
          <mxGeometry relative="1" as="geometry" />
        </mxCell>
        <mxCell id="SRUXhGPDmeP_8X7NdtPJ-69" value="PHP / Lumen" style="rounded=0;whiteSpace=wrap;html=1;dashed=1;fillColor=none;" parent="1" vertex="1">
          <mxGeometry x="875" y="770" width="150" height="20" as="geometry" />
        </mxCell>
        <mxCell id="SRUXhGPDmeP_8X7NdtPJ-70" value="APIS AWS" style="text;html=1;strokeColor=none;fillColor=none;align=center;verticalAlign=middle;whiteSpace=wrap;rounded=0;dashed=1;" parent="1" vertex="1">
          <mxGeometry x="835" y="720" width="110" height="20" as="geometry" />
        </mxCell>
        <mxCell id="SRUXhGPDmeP_8X7NdtPJ-79" style="edgeStyle=orthogonalEdgeStyle;rounded=0;orthogonalLoop=1;jettySize=auto;html=1;entryX=1;entryY=0.5;entryDx=0;entryDy=0;fontSize=11;startArrow=classic;startFill=1;fillColor=#d80073;labelBorderColor=#FF0000;labelBackgroundColor=none;noLabel=1;fontColor=none;jumpSize=10;endSize=10;startSize=10;strokeColor=#FF0000;strokeWidth=6;" parent="1" source="SRUXhGPDmeP_8X7NdtPJ-71" target="SRUXhGPDmeP_8X7NdtPJ-17" edge="1">
          <mxGeometry relative="1" as="geometry">
            <Array as="points">
              <mxPoint x="1150" y="580" />
              <mxPoint x="380" y="580" />
              <mxPoint x="380" y="370" />
            </Array>
          </mxGeometry>
        </mxCell>
        <mxCell id="Ni1iV5EW_skRwK6J7Ts_-14" value="RED VPN" style="edgeLabel;html=1;align=center;verticalAlign=middle;resizable=0;points=[];" parent="SRUXhGPDmeP_8X7NdtPJ-79" vertex="1" connectable="0">
          <mxGeometry x="0.0961" y="-1" relative="1" as="geometry">
            <mxPoint as="offset" />
          </mxGeometry>
        </mxCell>
        <mxCell id="SRUXhGPDmeP_8X7NdtPJ-71" value="API Gatew" style="rounded=0;whiteSpace=wrap;html=1;dashed=1;fillColor=none;" parent="1" vertex="1">
          <mxGeometry x="1065" y="770" width="150" height="20" as="geometry" />
        </mxCell>
        <mxCell id="SRUXhGPDmeP_8X7NdtPJ-72" value="RDS Mysql" style="rounded=0;whiteSpace=wrap;html=1;dashed=1;fillColor=none;" parent="1" vertex="1">
          <mxGeometry x="1064" y="830" width="150" height="20" as="geometry" />
        </mxCell>
        <mxCell id="SRUXhGPDmeP_8X7NdtPJ-76" value="" style="outlineConnect=0;dashed=0;verticalLabelPosition=bottom;verticalAlign=top;align=center;html=1;shape=mxgraph.aws3.ssl_padlock;fillColor=#D2D3D3;gradientColor=none;fontSize=11;" parent="1" vertex="1">
          <mxGeometry x="300" y="550" width="23" height="30" as="geometry" />
        </mxCell>
        <mxCell id="SRUXhGPDmeP_8X7NdtPJ-77" value="" style="outlineConnect=0;dashed=0;verticalLabelPosition=bottom;verticalAlign=top;align=center;html=1;shape=mxgraph.aws3.ssl_padlock;fillColor=#D2D3D3;gradientColor=none;fontSize=11;" parent="1" vertex="1">
          <mxGeometry x="720" y="570" width="23" height="30" as="geometry" />
        </mxCell>
        <mxCell id="SRUXhGPDmeP_8X7NdtPJ-73" value="" style="aspect=fixed;perimeter=ellipsePerimeter;html=1;align=center;shadow=0;dashed=0;spacingTop=3;image;image=img/lib/active_directory/internet_cloud.svg;fillColor=none;fontSize=11;" parent="1" vertex="1">
          <mxGeometry x="992.5" y="568.5" width="50" height="31.5" as="geometry" />
        </mxCell>
        <mxCell id="Ni1iV5EW_skRwK6J7Ts_-1" value="" style="rounded=1;whiteSpace=wrap;html=1;dashed=1;fillColor=none;" parent="1" vertex="1">
          <mxGeometry x="-330" y="715" width="420" height="175" as="geometry" />
        </mxCell>
        <mxCell id="Ni1iV5EW_skRwK6J7Ts_-2" value="Front End" style="text;html=1;strokeColor=none;fillColor=none;align=center;verticalAlign=middle;whiteSpace=wrap;rounded=0;dashed=1;" parent="1" vertex="1">
          <mxGeometry x="-320" y="720" width="110" height="20" as="geometry" />
        </mxCell>
        <mxCell id="Ni1iV5EW_skRwK6J7Ts_-6" style="edgeStyle=orthogonalEdgeStyle;rounded=0;orthogonalLoop=1;jettySize=auto;html=1;entryX=0.25;entryY=0;entryDx=0;entryDy=0;startArrow=classic;startFill=1;" parent="1" source="Ni1iV5EW_skRwK6J7Ts_-3" target="SRUXhGPDmeP_8X7NdtPJ-44" edge="1">
          <mxGeometry relative="1" as="geometry">
            <Array as="points">
              <mxPoint x="130" y="770" />
              <mxPoint x="130" y="750" />
              <mxPoint x="378" y="750" />
            </Array>
          </mxGeometry>
        </mxCell>
        <mxCell id="Ni1iV5EW_skRwK6J7Ts_-3" value="Formularios SAFEM" style="rounded=0;whiteSpace=wrap;html=1;dashed=1;fillColor=none;" parent="1" vertex="1">
          <mxGeometry x="-195" y="760" width="150" height="20" as="geometry" />
        </mxCell>
        <mxCell id="Ni1iV5EW_skRwK6J7Ts_-4" value="s3" style="rounded=0;whiteSpace=wrap;html=1;dashed=1;fillColor=none;" parent="1" vertex="1">
          <mxGeometry x="-195" y="780" width="150" height="20" as="geometry" />
        </mxCell>
        <mxCell id="Ni1iV5EW_skRwK6J7Ts_-5" value="CloudFront CDN" style="rounded=0;whiteSpace=wrap;html=1;dashed=1;fillColor=none;" parent="1" vertex="1">
          <mxGeometry x="-195" y="800" width="150" height="20" as="geometry" />
        </mxCell>
        <mxCell id="Ni1iV5EW_skRwK6J7Ts_-7" value="CHA / Otros Sistemas" style="text;html=1;strokeColor=none;fillColor=none;align=center;verticalAlign=middle;whiteSpace=wrap;rounded=0;dashed=1;" parent="1" vertex="1">
          <mxGeometry x="-320" y="695" width="130" height="20" as="geometry" />
        </mxCell>
        <mxCell id="Ni1iV5EW_skRwK6J7Ts_-8" value="" style="outlineConnect=0;dashed=0;verticalLabelPosition=bottom;verticalAlign=top;align=center;html=1;shape=mxgraph.aws3.cloud_2;fillColor=#F58534;gradientColor=none;fontSize=11;" parent="1" vertex="1">
          <mxGeometry x="35" y="720" width="35" height="40" as="geometry" />
        </mxCell>
        <mxCell id="Ni1iV5EW_skRwK6J7Ts_-10" value="" style="endArrow=none;dashed=1;html=1;entryX=0.567;entryY=0.003;entryDx=0;entryDy=0;entryPerimeter=0;exitX=0.566;exitY=1.013;exitDx=0;exitDy=0;exitPerimeter=0;" parent="1" source="SRUXhGPDmeP_8X7NdtPJ-59" target="SRUXhGPDmeP_8X7NdtPJ-59" edge="1">
          <mxGeometry width="50" height="50" relative="1" as="geometry">
            <mxPoint x="670" y="715" as="sourcePoint" />
            <mxPoint x="720" y="665" as="targetPoint" />
          </mxGeometry>
        </mxCell>
        <mxCell id="Ni1iV5EW_skRwK6J7Ts_-11" value="SAFEM OpciÃ³n 1 Actual&amp;nbsp;" style="text;html=1;strokeColor=none;fillColor=none;align=center;verticalAlign=middle;whiteSpace=wrap;rounded=0;dashed=1;fontStyle=1;fontColor=#FF3333;" parent="1" vertex="1">
          <mxGeometry x="455.63" y="440" width="143.75" height="20" as="geometry" />
        </mxCell>
        <mxCell id="Ni1iV5EW_skRwK6J7Ts_-16" value="SAFEM OpciÃ³n 2 Nuevos o Modificados&amp;nbsp;" style="text;html=1;strokeColor=none;fillColor=none;align=center;verticalAlign=middle;whiteSpace=wrap;rounded=0;dashed=1;fontStyle=1;fontColor=#FF3333;" parent="1" vertex="1">
          <mxGeometry x="670" y="640" width="247" height="20" as="geometry" />
        </mxCell>
        <mxCell id="SRUXhGPDmeP_8X7NdtPJ-81" style="edgeStyle=orthogonalEdgeStyle;rounded=0;orthogonalLoop=1;jettySize=auto;html=1;entryX=0.75;entryY=0;entryDx=0;entryDy=0;fontSize=11;fontColor=#FF3333;startArrow=classic;startFill=1;" parent="1" source="SRUXhGPDmeP_8X7NdtPJ-54" target="SRUXhGPDmeP_8X7NdtPJ-71" edge="1">
          <mxGeometry relative="1" as="geometry" />
        </mxCell>
        <mxCell id="Ni1iV5EW_skRwK6J7Ts_-13" value="Red VPN" style="edgeLabel;html=1;align=center;verticalAlign=middle;resizable=0;points=[];" parent="SRUXhGPDmeP_8X7NdtPJ-81" vertex="1" connectable="0">
          <mxGeometry x="0.203" relative="1" as="geometry">
            <mxPoint y="1" as="offset" />
          </mxGeometry>
        </mxCell>
        <mxCell id="Ni1iV5EW_skRwK6J7Ts_-18" value="" style="aspect=fixed;perimeter=ellipsePerimeter;html=1;align=center;shadow=0;dashed=0;spacingTop=3;image;image=img/lib/active_directory/internet_globe.svg;fillColor=none;fontSize=11;" parent="1" vertex="1">
          <mxGeometry x="610" y="630" width="50" height="50" as="geometry" />
        </mxCell>
        <mxCell id="Ni1iV5EW_skRwK6J7Ts_-19" value="Internet" style="text;html=1;strokeColor=none;fillColor=none;align=center;verticalAlign=middle;whiteSpace=wrap;rounded=0;dashed=1;fontSize=11;" parent="1" vertex="1">
          <mxGeometry x="615" y="680" width="40" height="20" as="geometry" />
        </mxCell>
      </root>
    </mxGraphModel>
  </diagram>
</mxfile>
